PathFileType	4	(X/Y/Z)	C:/Users/opensim2020/Desktop/walking_exp_matlab/subject01_walking11_straight_04.trc	
DataRate	CameraRate	NumFrames	NumMarkers	Units	OrigDataRate	OrigDataStartFrame	OrigNumFrames	
100.00	100.00	4	44	mm	100.00	4009	278	
Frame#	Time	LFHD			RFHD			LBHD			RBHD			C7			T10			CLAV			STRN			RBAK			LSHO			LUPA			LELB			LFRM			LWRA			LWRB			LFIN			RSHO			RUPA			RELB			RFRM			RWRA			RWRB			RFIN			LASI			RASI			LPSI			RPSI			LTHI			LKNE			LTIB			LANK			LHEE			LTOE			RTHI			RKNE			RTIB			RANK			RHEE			RTOE			*39			*40			*41			*42			*43			
		X1	Y1	Z1	X2	Y2	Z2	X3	Y3	Z3	X4	Y4	Z4	X5	Y5	Z5	X6	Y6	Z6	X7	Y7	Z7	X8	Y8	Z8	X9	Y9	Z9	X10	Y10	Z10	X11	Y11	Z11	X12	Y12	Z12	X13	Y13	Z13	X14	Y14	Z14	X15	Y15	Z15	X16	Y16	Z16	X17	Y17	Z17	X18	Y18	Z18	X19	Y19	Z19	X20	Y20	Z20	X21	Y21	Z21	X22	Y22	Z22	X23	Y23	Z23	X24	Y24	Z24	X25	Y25	Z25	X26	Y26	Z26	X27	Y27	Z27	X28	Y28	Z28	X29	Y29	Z29	X30	Y30	Z30	X31	Y31	Z31	X32	Y32	Z32	X33	Y33	Z33	X34	Y34	Z34	X35	Y35	Z35	X36	Y36	Z36	X37	Y37	Z37	X38	Y38	Z38	X39	Y39	Z39	X40	Y40	Z40	X41	Y41	Z41	X42	Y42	Z42	X43	Y43	Z43	X44	Y44	Z44	

140	1.390	-1027.07849	34.11556	1672.91870	-1136.04370	-1.49614	1673.67151	-1058.62109	149.28835	1636.32654	-1173.71741	115.19831	1636.64648	-1079.41821	188.63620	1434.81348	-1083.63708	220.94215	1140.67346	-1083.41748	45.68935	1366.50195	-1075.76746	1.40302	1212.39795	-1148.46204	246.98499	1236.96204	-921.05157	99.76961	1404.40894	-835.99548	124.20390	1219.64893	-839.33978	133.71132	1067.20679	-811.11792	88.89405	963.26514	-822.80780	-1.36726	856.34955	-802.56091	54.29607	846.17621	-788.06464	-0.24490	782.17493	-1230.73132	119.93649	1391.51355	-1326.79358	182.22990	1191.23767	-1331.91113	177.82304	1066.70056	-1366.02441	147.38995	951.31744	-1354.81494	61.12502	837.66321	-1390.87878	107.34109	837.66821	-1391.48889	67.97577	759.87970	-977.91003	51.17229	931.04773	-1194.82666	46.95890	937.09692	-1032.02246	235.36357	945.64618	-1177.80493	231.92795	951.51770	-914.76599	40.50394	602.68591	-923.02130	39.97002	469.71152	-919.55182	186.88350	359.08276	-972.68665	350.67828	217.16020	-1032.27893	396.97604	223.01508	-955.24640	284.86438	86.56223	-1243.36707	70.63103	603.85358	-1211.78345	43.45615	448.10132	-1214.08496	92.33521	277.69952	-1166.55823	119.31476	75.11842	-1118.36255	170.79286	37.73524	-1162.18665	-20.36685	37.33112	-1116.81519	12.02409	1708.79700	-3101.76416	1973.01709	1023.45367	-3140.69971	2012.43579	1021.95105						 
141	1.400	-1027.30945	27.00437	1672.89795	-1136.19641	-8.97649	1673.59888	-1059.06641	142.28728	1636.72900	-1174.16089	107.78001	1636.96497	-1080.09509	182.07016	1435.19128	-1084.27307	214.82581	1141.04944	-1083.95056	39.24676	1366.67761	-1076.47900	-4.83010	1212.44971	-1149.29370	240.61052	1237.41821	-921.59070	93.48775	1404.51599	-836.76074	118.56236	1219.67139	-840.57013	128.82574	1067.40833	-812.40540	85.49367	962.96295	-824.18079	-3.18596	854.59424	-804.06470	52.59758	845.27747	-789.66705	-0.82140	780.35120	-1231.34924	113.37690	1391.91504	-1327.80469	174.53484	1191.51929	-1333.04736	169.64832	1066.97424	-1367.25085	138.37134	951.93970	-1355.96558	50.80923	839.05261	-1392.08191	96.97585	838.58649	-1392.77795	56.80851	761.29565	-979.07544	45.04554	931.72540	-1195.93286	41.30388	937.19702	-1032.30151	229.25861	946.21362	-1178.15491	226.23232	951.62341	-915.14575	30.45230	604.19202	-923.64661	27.65516	471.39774	-920.33923	173.15100	359.41861	-973.07562	335.15039	215.19415	-1032.83777	381.63040	219.02101	-955.58783	265.04428	86.64167	-1243.63635	66.98936	603.53107	-1212.06567	41.22478	447.53064	-1214.20923	91.33277	277.54877	-1166.46460	119.12385	75.06149	-1118.28540	170.67448	37.83879	-1162.13416	-20.40392	37.29577	-1116.44275	4.94508	1708.57397	-3101.99658	1973.07715	1023.44696	-3140.67188	2012.50732	1021.96985						 
142	1.410	-1027.48657	19.89637	1672.84265	-1136.20105	-16.36908	1673.49451	-1059.63062	135.48497	1637.09143	-1174.59387	100.36750	1637.31360	-1080.63965	175.56668	1435.53333	-1084.94348	208.71487	1141.41772	-1084.40735	32.85212	1366.81543	-1077.10315	-11.02578	1212.52246	-1150.03381	234.24806	1237.85022	-922.08105	87.07172	1404.64319	-837.47839	112.95041	1219.71472	-841.73523	124.16390	1067.65405	-813.53192	82.16729	962.64404	-825.50751	-4.90008	852.91101	-805.04999	50.91251	844.42920	-791.11432	-1.66214	778.69684	-1231.76904	106.81808	1392.27844	-1328.74854	167.04097	1191.79358	-1334.15637	161.57761	1067.24084	-1368.38501	129.17967	952.44049	-1357.01440	40.54344	840.43976	-1393.27502	86.61513	839.61908	-1393.84399	45.62786	762.64044	-980.20258	39.20619	932.31274	-1197.04492	35.60775	937.24445	-1032.62463	223.29478	946.66089	-1178.48059	220.55583	951.76666	-915.43970	20.45568	605.78796	-924.28259	15.55949	473.14987	-921.05969	159.38330	359.37302	-973.73077	318.61719	211.67694	-1033.05469	365.81723	214.15636	-955.69037	244.51804	86.00555	-1243.86023	63.64346	603.34998	-1212.44580	39.18870	447.16586	-1214.27612	90.44447	277.42877	-1166.33264	118.98872	75.07267	-1118.17883	170.50403	37.83329	-1162.08545	-20.45707	37.32515	-1116.89624	-2.93297	1708.70264	-3101.99683	1973.08582	1023.45514	-3140.53784	2012.55994	1022.07977						 
143	1.420	-1027.56445	12.86420	1672.78296	-1136.27405	-23.76182	1673.44287	-1060.07788	128.50502	1637.47375	-1174.91907	93.01566	1637.65503	-1081.14526	169.06940	1435.86938	-1085.53943	202.58580	1141.77856	-1084.82019	26.39303	1366.94934	-1077.73254	-17.12578	1212.59326	-1150.67810	227.96112	1238.23767	-922.49420	80.75140	1404.74158	-838.10822	107.31964	1219.76819	-842.67395	119.29491	1067.83813	-814.55505	78.81828	962.37091	-826.75897	-6.65491	851.33661	-806.21960	49.26283	843.71515	-792.64056	-2.26933	776.85754	-1232.25854	100.34264	1392.62622	-1329.90491	159.65414	1192.16516	-1335.19128	153.56209	1067.51038	-1369.45654	120.02149	953.03137	-1358.04797	30.26693	841.88049	-1394.28955	76.27486	840.60217	-1394.99487	34.53085	764.07233	-981.23328	33.42646	932.98413	-1197.89246	29.92109	937.17310	-1032.99316	217.39316	946.94672	-1178.83179	214.82536	951.94482	-915.74335	10.57214	607.44720	-924.95514	3.88222	474.95273	-921.83167	145.65733	358.90231	-974.12421	301.49500	207.49422	-1033.22058	349.56323	208.43822	-955.90558	223.62234	84.76677	-1244.11316	60.37800	603.07214	-1212.76672	37.20957	446.53336	-1214.30701	89.46734	277.28403	-1166.23572	118.90681	75.11485	-1118.54016	170.46771	37.87819	-1162.08325	-20.47146	37.22426	-1116.54895	-10.09425	1708.44397	-3101.90234	1973.12146	1023.53967	-3140.68506	2012.58887	1022.03864						 
